<svg xmlns="http://www.w3.org/2000/svg" xmlns:xlink="http://www.w3.org/1999/xlink" width="1024" zoomAndPan="magnify" viewBox="0 0 768 767.999994" height="1024" preserveAspectRatio="xMidYMid meet" version="1.0"><rect x="-76.8" width="921.6" fill="#ffffff" y="-76.799999" height="921.599993" fill-opacity="1"/><rect x="-76.8" width="921.6" fill="#fcbe14" y="-76.799999" height="921.599993" fill-opacity="1"/><path fill="#fbbe15" d="M 906.835938 415.355469 C 906.835938 423.910156 906.625 432.460938 906.207031 441.007812 C 905.785156 449.550781 905.15625 458.078125 904.316406 466.59375 C 903.480469 475.109375 902.433594 483.59375 901.175781 492.058594 C 899.921875 500.519531 898.460938 508.945312 896.789062 517.335938 C 895.121094 525.726562 893.246094 534.074219 891.167969 542.371094 C 889.089844 550.671875 886.808594 558.914062 884.324219 567.097656 C 881.839844 575.285156 879.15625 583.40625 876.277344 591.460938 C 873.394531 599.515625 870.316406 607.496094 867.042969 615.398438 C 863.765625 623.304688 860.300781 631.121094 856.644531 638.855469 C 852.984375 646.589844 849.140625 654.230469 845.105469 661.773438 C 841.074219 669.320312 836.859375 676.761719 832.460938 684.097656 C 828.0625 691.4375 823.484375 698.660156 818.730469 705.773438 C 813.976562 712.886719 809.054688 719.878906 803.957031 726.75 C 798.859375 733.621094 793.597656 740.367188 788.171875 746.976562 C 782.742188 753.589844 777.15625 760.066406 771.410156 766.40625 C 765.664062 772.746094 759.769531 778.9375 753.71875 784.988281 C 747.667969 791.039062 741.472656 796.933594 735.132812 802.679688 C 728.796875 808.425781 722.320312 814.011719 715.703125 819.4375 C 709.089844 824.867188 702.347656 830.128906 695.476562 835.222656 C 688.605469 840.320312 681.613281 845.246094 674.5 849.996094 C 667.382812 854.75 660.160156 859.328125 652.820312 863.722656 C 645.480469 868.121094 638.039062 872.339844 630.496094 876.371094 C 622.949219 880.402344 615.308594 884.25 607.574219 887.90625 C 599.839844 891.566406 592.023438 895.03125 584.117188 898.304688 C 576.214844 901.578125 568.234375 904.65625 560.175781 907.539062 C 552.121094 910.421875 544 913.101562 535.8125 915.585938 C 527.625 918.070312 519.382812 920.351562 511.082031 922.429688 C 502.785156 924.507812 494.441406 926.382812 486.046875 928.050781 C 477.65625 929.71875 469.230469 931.183594 460.765625 932.4375 C 452.304688 933.691406 443.816406 934.738281 435.300781 935.578125 C 426.785156 936.417969 418.257812 937.046875 409.710938 937.464844 C 401.164062 937.886719 392.617188 938.09375 384.058594 938.09375 C 375.503906 938.09375 366.953125 937.886719 358.410156 937.464844 C 349.863281 937.046875 341.332031 936.417969 332.820312 935.578125 C 324.304688 934.738281 315.816406 933.691406 307.351562 932.4375 C 298.890625 931.183594 290.460938 929.71875 282.070312 928.050781 C 273.679688 926.382812 265.335938 924.507812 257.035156 922.429688 C 248.738281 920.351562 240.492188 918.070312 232.304688 915.585938 C 224.121094 913.101562 215.996094 910.421875 207.941406 907.539062 C 199.886719 904.65625 191.90625 901.578125 184.003906 898.304688 C 176.097656 895.03125 168.277344 891.566406 160.542969 887.90625 C 152.8125 884.25 145.171875 880.402344 137.625 876.371094 C 130.082031 872.339844 122.636719 868.121094 115.300781 863.722656 C 107.960938 859.328125 100.734375 854.75 93.621094 849.996094 C 86.507812 845.246094 79.515625 840.320312 72.644531 835.222656 C 65.769531 830.128906 59.027344 824.867188 52.414062 819.4375 C 45.800781 814.011719 39.324219 808.425781 32.984375 802.679688 C 26.644531 796.933594 20.453125 791.039062 14.402344 784.988281 C 8.351562 778.9375 2.453125 772.746094 -3.289062 766.40625 C -9.035156 760.066406 -14.625 753.589844 -20.050781 746.976562 C -25.476562 740.367188 -30.742188 733.621094 -35.835938 726.75 C -40.933594 719.878906 -45.859375 712.886719 -50.613281 705.773438 C -55.363281 698.660156 -59.941406 691.4375 -64.339844 684.097656 C -68.738281 676.761719 -72.953125 669.320312 -76.988281 661.773438 C -81.019531 654.230469 -84.863281 646.589844 -88.523438 638.855469 C -92.179688 631.121094 -95.648438 623.304688 -98.921875 615.398438 C -102.195312 607.496094 -105.273438 599.515625 -108.15625 591.460938 C -111.039062 583.40625 -113.722656 575.285156 -116.203125 567.097656 C -118.6875 558.914062 -120.96875 550.671875 -123.046875 542.371094 C -125.128906 534.074219 -127 525.726562 -128.671875 517.335938 C -130.339844 508.945312 -131.800781 500.519531 -133.058594 492.058594 C -134.3125 483.59375 -135.359375 475.109375 -136.199219 466.59375 C -137.035156 458.078125 -137.664062 449.550781 -138.085938 441.007812 C -138.503906 432.460938 -138.714844 423.910156 -138.714844 415.355469 C -138.714844 406.800781 -138.503906 398.25 -138.085938 389.707031 C -137.664062 381.160156 -137.035156 372.632812 -136.199219 364.117188 C -135.359375 355.605469 -134.3125 347.117188 -133.058594 338.65625 C -131.800781 330.191406 -130.339844 321.765625 -128.671875 313.375 C -127 304.984375 -125.128906 296.640625 -123.046875 288.339844 C -120.96875 280.042969 -118.6875 271.800781 -116.203125 263.613281 C -113.722656 255.425781 -111.039062 247.304688 -108.15625 239.25 C -105.273438 231.195312 -102.195312 223.214844 -98.921875 215.3125 C -95.648438 207.410156 -92.179688 199.589844 -88.523438 191.855469 C -84.863281 184.121094 -81.019531 176.484375 -76.988281 168.9375 C -72.953125 161.394531 -68.738281 153.953125 -64.339844 146.613281 C -59.941406 139.277344 -55.363281 132.050781 -50.613281 124.9375 C -45.859375 117.824219 -40.933594 110.832031 -35.835938 103.960938 C -30.742188 97.089844 -25.476562 90.347656 -20.050781 83.734375 C -14.625 77.121094 -9.035156 70.644531 -3.289062 64.304688 C 2.453125 57.96875 8.351562 51.773438 14.402344 45.722656 C 20.453125 39.675781 26.644531 33.777344 32.984375 28.03125 C 39.324219 22.285156 45.800781 16.699219 52.414062 11.273438 C 59.027344 5.847656 65.769531 0.585938 72.644531 -4.511719 C 79.515625 -9.609375 86.507812 -14.53125 93.621094 -19.285156 C 100.734375 -24.039062 107.960938 -28.613281 115.300781 -33.011719 C 122.636719 -37.410156 130.082031 -41.625 137.625 -45.660156 C 145.171875 -49.691406 152.8125 -53.535156 160.542969 -57.195312 C 168.277344 -60.851562 176.097656 -64.316406 184.003906 -67.589844 C 191.90625 -70.867188 199.886719 -73.945312 207.941406 -76.824219 C 215.996094 -79.707031 224.121094 -82.390625 232.304688 -84.875 C 240.492188 -87.355469 248.738281 -89.636719 257.035156 -91.71875 C 265.335938 -93.796875 273.679688 -95.667969 282.070312 -97.339844 C 290.460938 -99.007812 298.890625 -100.46875 307.351562 -101.726562 C 315.816406 -102.980469 324.304688 -104.027344 332.820312 -104.867188 C 341.332031 -105.703125 349.863281 -106.332031 358.410156 -106.753906 C 366.953125 -107.171875 375.503906 -107.382812 384.058594 -107.382812 C 392.617188 -107.382812 401.164062 -107.171875 409.710938 -106.753906 C 418.257812 -106.332031 426.785156 -105.703125 435.300781 -104.867188 C 443.816406 -104.027344 452.304688 -102.980469 460.765625 -101.726562 C 469.230469 -100.46875 477.65625 -99.007812 486.046875 -97.339844 C 494.441406 -95.667969 502.785156 -93.796875 511.082031 -91.71875 C 519.382812 -89.636719 527.625 -87.355469 535.8125 -84.875 C 544 -82.390625 552.121094 -79.707031 560.175781 -76.824219 C 568.234375 -73.945312 576.214844 -70.867188 584.117188 -67.589844 C 592.023438 -64.316406 599.839844 -60.851562 607.574219 -57.195312 C 615.308594 -53.535156 622.949219 -49.691406 630.496094 -45.660156 C 638.039062 -41.625 645.480469 -37.410156 652.820312 -33.011719 C 660.160156 -28.613281 667.382812 -24.039062 674.5 -19.285156 C 681.613281 -14.53125 688.605469 -9.609375 695.476562 -4.511719 C 702.347656 0.585938 709.089844 5.847656 715.703125 11.273438 C 722.320312 16.699219 728.796875 22.285156 735.132812 28.03125 C 741.472656 33.777344 747.667969 39.675781 753.71875 45.722656 C 759.769531 51.773438 765.664062 57.96875 771.410156 64.304688 C 777.15625 70.644531 782.742188 77.121094 788.171875 83.734375 C 793.597656 90.347656 798.859375 97.089844 803.957031 103.960938 C 809.054688 110.832031 813.976562 117.824219 818.730469 124.9375 C 823.484375 132.050781 828.0625 139.277344 832.460938 146.613281 C 836.859375 153.953125 841.074219 161.394531 845.105469 168.9375 C 849.140625 176.484375 852.984375 184.121094 856.644531 191.855469 C 860.300781 199.589844 863.765625 207.410156 867.042969 215.3125 C 870.316406 223.214844 873.394531 231.195312 876.277344 239.25 C 879.15625 247.304688 881.839844 255.425781 884.324219 263.613281 C 886.808594 271.800781 889.089844 280.042969 891.167969 288.339844 C 893.246094 296.640625 895.121094 304.984375 896.789062 313.375 C 898.460938 321.765625 899.921875 330.191406 901.175781 338.65625 C 902.433594 347.117188 903.480469 355.605469 904.316406 364.117188 C 905.15625 372.632812 905.785156 381.160156 906.207031 389.707031 C 906.625 398.25 906.835938 406.800781 906.835938 415.355469 Z M 906.835938 415.355469 " fill-opacity="1" fill-rule="nonzero"/><path fill="#231f20" d="M 740.949219 229.523438 L 40.296875 665.164062 L 313.246094 935.253906 C 599.304688 961.792969 906.832031 776.015625 906.832031 396.921875 " fill-opacity="0.2" fill-rule="nonzero"/><path fill="#146aa8" d="M 711.929688 534.566406 L 754.050781 265.636719 C 758.433594 238.34375 739.863281 212.667969 712.570312 208.273438 L 144.199219 117.054688 C 116.90625 112.675781 91.226562 131.246094 86.847656 158.535156 L 66.648438 284.304688 L 66.648438 533.003906 Z M 711.929688 534.566406 " fill-opacity="1" fill-rule="nonzero"/><path fill="#126099" d="M 712.570312 208.273438 L 551.136719 182.371094 C 442.71875 348.257812 267.449219 463.15625 133.035156 533.164062 L 711.929688 534.566406 L 754.050781 265.636719 C 758.433594 238.34375 739.863281 212.667969 712.570312 208.273438 Z M 712.570312 208.273438 " fill-opacity="1" fill-rule="nonzero"/><path fill="#4398d1" d="M 86.230469 271.792969 L 661.875 271.792969 C 689.519531 271.792969 711.929688 294.203125 711.929688 321.84375 L 711.929688 647.1875 C 711.929688 674.828125 689.519531 697.238281 661.875 697.238281 L 86.230469 697.238281 C 58.589844 697.238281 36.175781 674.828125 36.175781 647.1875 L 36.175781 321.84375 C 36.175781 294.203125 58.589844 271.792969 86.230469 271.792969 Z M 86.230469 271.792969 " fill-opacity="1" fill-rule="nonzero"/><path fill="#3e8cc7" d="M 661.875 271.792969 L 651.863281 271.792969 C 533.734375 481.5 312.996094 625.351562 178.246094 697.238281 L 661.875 697.238281 C 689.519531 697.238281 711.929688 674.828125 711.929688 647.1875 L 711.929688 321.84375 C 711.929688 294.203125 689.519531 271.792969 661.875 271.792969 Z M 661.875 271.792969 " fill-opacity="1" fill-rule="nonzero"/><path fill="#fdb62f" d="M 98.746094 334.355469 L 223.886719 334.355469 L 223.886719 434.460938 L 98.746094 434.460938 Z M 98.746094 334.355469 " fill-opacity="1" fill-rule="nonzero"/><path fill="#fd7b2f" d="M 98.746094 371.894531 L 136.289062 371.894531 L 136.289062 396.921875 L 98.746094 396.921875 Z M 98.746094 371.894531 " fill-opacity="1" fill-rule="nonzero"/><path fill="#fd7b2f" d="M 186.34375 371.894531 L 223.886719 371.894531 L 223.886719 396.921875 L 186.34375 396.921875 Z M 186.34375 371.894531 " fill-opacity="1" fill-rule="nonzero"/><path fill="#fdb62f" d="M 649.359375 572.105469 C 649.359375 574.15625 649.261719 576.199219 649.058594 578.238281 C 648.859375 580.277344 648.558594 582.304688 648.160156 584.3125 C 647.757812 586.324219 647.261719 588.308594 646.667969 590.269531 C 646.070312 592.230469 645.382812 594.15625 644.597656 596.050781 C 643.8125 597.941406 642.9375 599.792969 641.972656 601.601562 C 641.007812 603.40625 639.953125 605.164062 638.816406 606.867188 C 637.675781 608.570312 636.457031 610.214844 635.15625 611.796875 C 633.859375 613.382812 632.484375 614.898438 631.035156 616.347656 C 629.585938 617.796875 628.070312 619.171875 626.484375 620.472656 C 624.902344 621.769531 623.257812 622.988281 621.550781 624.128906 C 619.847656 625.265625 618.09375 626.320312 616.285156 627.285156 C 614.476562 628.25 612.628906 629.125 610.734375 629.910156 C 608.839844 630.695312 606.914062 631.382812 604.953125 631.980469 C 602.992188 632.574219 601.007812 633.070312 598.996094 633.46875 C 596.988281 633.871094 594.960938 634.171875 592.921875 634.371094 C 590.882812 634.570312 588.839844 634.671875 586.789062 634.671875 C 584.742188 634.671875 582.695312 634.570312 580.65625 634.371094 C 578.617188 634.171875 576.59375 633.871094 574.582031 633.46875 C 572.574219 633.070312 570.589844 632.574219 568.628906 631.980469 C 566.667969 631.382812 564.738281 630.695312 562.847656 629.910156 C 560.953125 629.125 559.101562 628.25 557.296875 627.285156 C 555.488281 626.320312 553.730469 625.265625 552.027344 624.128906 C 550.324219 622.988281 548.679688 621.769531 547.097656 620.472656 C 545.511719 619.171875 543.996094 617.796875 542.546875 616.347656 C 541.097656 614.898438 539.722656 613.382812 538.421875 611.796875 C 537.121094 610.214844 535.902344 608.570312 534.765625 606.867188 C 533.625 605.164062 532.574219 603.40625 531.609375 601.601562 C 530.640625 599.792969 529.765625 597.941406 528.984375 596.050781 C 528.199219 594.15625 527.507812 592.230469 526.914062 590.269531 C 526.320312 588.308594 525.824219 586.324219 525.421875 584.3125 C 525.023438 582.304688 524.722656 580.277344 524.523438 578.238281 C 524.320312 576.199219 524.21875 574.15625 524.21875 572.105469 C 524.21875 570.058594 524.320312 568.011719 524.523438 565.972656 C 524.722656 563.933594 525.023438 561.910156 525.421875 559.902344 C 525.824219 557.890625 526.320312 555.90625 526.914062 553.945312 C 527.507812 551.984375 528.199219 550.058594 528.984375 548.164062 C 529.765625 546.269531 530.640625 544.421875 531.609375 542.613281 C 532.574219 540.804688 533.625 539.050781 534.765625 537.347656 C 535.902344 535.644531 537.125 534 538.421875 532.414062 C 539.722656 530.832031 541.097656 529.316406 542.546875 527.867188 C 543.996094 526.417969 545.511719 525.042969 547.097656 523.742188 C 548.679688 522.441406 550.324219 521.222656 552.027344 520.085938 C 553.730469 518.945312 555.488281 517.894531 557.296875 516.929688 C 559.101562 515.960938 560.953125 515.085938 562.847656 514.304688 C 564.738281 513.519531 566.667969 512.828125 568.628906 512.234375 C 570.589844 511.640625 572.574219 511.144531 574.582031 510.742188 C 576.59375 510.34375 578.617188 510.042969 580.65625 509.84375 C 582.695312 509.640625 584.742188 509.542969 586.789062 509.539062 C 588.839844 509.542969 590.882812 509.640625 592.921875 509.84375 C 594.960938 510.042969 596.988281 510.34375 598.996094 510.742188 C 601.007812 511.144531 602.992188 511.640625 604.953125 512.234375 C 606.914062 512.828125 608.839844 513.519531 610.734375 514.304688 C 612.628906 515.085938 614.476562 515.960938 616.285156 516.929688 C 618.09375 517.894531 619.847656 518.945312 621.550781 520.085938 C 623.257812 521.222656 624.902344 522.441406 626.484375 523.742188 C 628.070312 525.042969 629.585938 526.417969 631.035156 527.867188 C 632.484375 529.316406 633.859375 530.832031 635.15625 532.414062 C 636.457031 534 637.675781 535.644531 638.816406 537.347656 C 639.953125 539.050781 641.007812 540.804688 641.972656 542.613281 C 642.9375 544.421875 643.8125 546.269531 644.597656 548.164062 C 645.382812 550.058594 646.070312 551.984375 646.667969 553.945312 C 647.261719 555.90625 647.757812 557.890625 648.160156 559.902344 C 648.558594 561.910156 648.859375 563.933594 649.058594 565.972656 C 649.261719 568.011719 649.359375 570.058594 649.359375 572.105469 Z M 649.359375 572.105469 " fill-opacity="1" fill-rule="nonzero"/><path fill="#de4c3c" d="M 574.277344 572.105469 C 574.277344 574.15625 574.175781 576.199219 573.976562 578.238281 C 573.777344 580.277344 573.476562 582.304688 573.074219 584.3125 C 572.675781 586.324219 572.179688 588.308594 571.582031 590.269531 C 570.988281 592.230469 570.300781 594.15625 569.515625 596.050781 C 568.730469 597.941406 567.855469 599.792969 566.890625 601.601562 C 565.921875 603.40625 564.871094 605.164062 563.734375 606.867188 C 562.59375 608.570312 561.375 610.214844 560.074219 611.796875 C 558.773438 613.382812 557.402344 614.898438 555.953125 616.347656 C 554.503906 617.796875 552.984375 619.171875 551.402344 620.472656 C 549.816406 621.769531 548.171875 622.988281 546.46875 624.128906 C 544.765625 625.265625 543.011719 626.320312 541.203125 627.285156 C 539.394531 628.25 537.546875 629.125 535.652344 629.910156 C 533.757812 630.695312 531.832031 631.382812 529.871094 631.980469 C 527.910156 632.574219 525.925781 633.070312 523.914062 633.46875 C 521.90625 633.871094 519.878906 634.171875 517.839844 634.371094 C 515.800781 634.570312 513.757812 634.671875 511.707031 634.671875 C 509.660156 634.671875 507.613281 634.570312 505.574219 634.371094 C 503.535156 634.171875 501.511719 633.871094 499.5 633.46875 C 497.492188 633.070312 495.503906 632.574219 493.542969 631.980469 C 491.582031 631.382812 489.65625 630.695312 487.761719 629.910156 C 485.871094 629.125 484.019531 628.25 482.210938 627.285156 C 480.40625 626.320312 478.648438 625.265625 476.945312 624.128906 C 475.242188 622.988281 473.597656 621.769531 472.015625 620.472656 C 470.429688 619.171875 468.914062 617.796875 467.464844 616.347656 C 466.015625 614.898438 464.640625 613.382812 463.339844 611.796875 C 462.039062 610.214844 460.820312 608.570312 459.683594 606.867188 C 458.542969 605.164062 457.492188 603.40625 456.527344 601.601562 C 455.558594 599.792969 454.683594 597.941406 453.902344 596.050781 C 453.117188 594.15625 452.425781 592.230469 451.832031 590.269531 C 451.238281 588.308594 450.738281 586.324219 450.339844 584.3125 C 449.941406 582.304688 449.640625 580.277344 449.4375 578.238281 C 449.238281 576.199219 449.136719 574.15625 449.136719 572.105469 C 449.136719 570.058594 449.238281 568.011719 449.4375 565.972656 C 449.640625 563.933594 449.941406 561.910156 450.339844 559.902344 C 450.738281 557.890625 451.238281 555.90625 451.832031 553.945312 C 452.425781 551.984375 453.117188 550.058594 453.902344 548.164062 C 454.683594 546.269531 455.558594 544.421875 456.527344 542.613281 C 457.492188 540.804688 458.542969 539.050781 459.683594 537.347656 C 460.820312 535.644531 462.039062 534 463.339844 532.414062 C 464.640625 530.832031 466.015625 529.316406 467.464844 527.867188 C 468.914062 526.417969 470.429688 525.042969 472.015625 523.742188 C 473.597656 522.441406 475.242188 521.222656 476.945312 520.085938 C 478.648438 518.945312 480.40625 517.894531 482.210938 516.929688 C 484.019531 515.960938 485.871094 515.085938 487.761719 514.304688 C 489.65625 513.519531 491.582031 512.828125 493.542969 512.234375 C 495.503906 511.640625 497.492188 511.144531 499.5 510.742188 C 501.511719 510.34375 503.535156 510.042969 505.574219 509.84375 C 507.613281 509.640625 509.660156 509.542969 511.707031 509.539062 C 513.757812 509.542969 515.800781 509.640625 517.839844 509.84375 C 519.878906 510.042969 521.90625 510.34375 523.914062 510.742188 C 525.925781 511.144531 527.910156 511.640625 529.871094 512.234375 C 531.832031 512.828125 533.757812 513.519531 535.652344 514.304688 C 537.546875 515.085938 539.394531 515.960938 541.203125 516.929688 C 543.011719 517.894531 544.765625 518.945312 546.46875 520.085938 C 548.171875 521.222656 549.816406 522.441406 551.402344 523.742188 C 552.984375 525.042969 554.503906 526.417969 555.953125 527.867188 C 557.402344 529.316406 558.773438 530.832031 560.074219 532.414062 C 561.375 534 562.59375 535.644531 563.734375 537.347656 C 564.871094 539.050781 565.921875 540.804688 566.890625 542.613281 C 567.855469 544.421875 568.730469 546.269531 569.515625 548.164062 C 570.300781 550.058594 570.988281 551.984375 571.582031 553.945312 C 572.179688 555.90625 572.675781 557.890625 573.074219 559.902344 C 573.476562 561.910156 573.777344 563.933594 573.976562 565.972656 C 574.175781 568.011719 574.277344 570.058594 574.277344 572.105469 Z M 574.277344 572.105469 " fill-opacity="1" fill-rule="nonzero"/><path fill="#87ced9" d="M 86.230469 522.054688 L 161.316406 522.054688 L 161.316406 547.082031 L 86.230469 547.082031 Z M 86.230469 522.054688 " fill-opacity="1" fill-rule="nonzero"/><path fill="#87ced9" d="M 211.371094 522.054688 L 286.457031 522.054688 L 286.457031 547.082031 L 211.371094 547.082031 Z M 211.371094 522.054688 " fill-opacity="1" fill-rule="nonzero"/><path fill="#87ced9" d="M 336.511719 522.054688 L 411.59375 522.054688 L 411.59375 547.082031 L 336.511719 547.082031 Z M 336.511719 522.054688 " fill-opacity="1" fill-rule="nonzero"/><path fill="#87ced9" d="M 86.230469 597.132812 L 411.59375 597.132812 L 411.59375 622.160156 L 86.230469 622.160156 Z M 86.230469 597.132812 " fill-opacity="1" fill-rule="nonzero"/><path fill="#87ced9" d="M 474.164062 334.355469 L 499.195312 334.355469 L 499.195312 384.410156 L 474.164062 384.410156 Z M 474.164062 334.355469 " fill-opacity="1" fill-rule="nonzero"/><path fill="#87ced9" d="M 524.222656 334.355469 L 549.25 334.355469 L 549.25 384.410156 L 524.222656 384.410156 Z M 524.222656 334.355469 " fill-opacity="1" fill-rule="nonzero"/><path fill="#87ced9" d="M 574.277344 334.355469 L 599.304688 334.355469 L 599.304688 384.410156 L 574.277344 384.410156 Z M 574.277344 334.355469 " fill-opacity="1" fill-rule="nonzero"/><path fill="#87ced9" d="M 624.332031 334.355469 L 649.359375 334.355469 L 649.359375 384.410156 L 624.332031 384.410156 Z M 624.332031 334.355469 " fill-opacity="1" fill-rule="nonzero"/></svg>