<svg xmlns="http://www.w3.org/2000/svg" xmlns:xlink="http://www.w3.org/1999/xlink" width="1024" zoomAndPan="magnify" viewBox="0 0 768 767.999994" height="1024" preserveAspectRatio="xMidYMid meet" version="1.0"><defs><clipPath id="4efef2e687"><path d="M 69.726562 27.796875 L 690.246094 27.796875 L 690.246094 740.296875 L 69.726562 740.296875 Z M 69.726562 27.796875 " clip-rule="nonzero"/></clipPath><clipPath id="21352b18d7"><path d="M 213.691406 342.917969 L 539.941406 342.917969 L 539.941406 669 L 213.691406 669 Z M 213.691406 342.917969 " clip-rule="nonzero"/></clipPath><clipPath id="7aad3ffefe"><path d="M 310.160156 433.90625 L 460.160156 433.90625 L 460.160156 598.90625 L 310.160156 598.90625 Z M 310.160156 433.90625 " clip-rule="nonzero"/></clipPath></defs><rect x="-76.8" width="921.6" fill="#ffffff" y="-76.799999" height="921.599993" fill-opacity="1"/><rect x="-76.8" width="921.6" fill="#e5d3eb" y="-76.799999" height="921.599993" fill-opacity="1"/><g clip-path="url(#4efef2e687)"><path fill="#8a1fab" d="M 690.035156 382.785156 C 688.382812 396.054688 686.5 409.257812 684.140625 422.335938 C 682.941406 428.882812 681.640625 435.394531 680.199219 441.855469 C 678.789062 448.332031 677.3125 454.773438 675.636719 461.164062 C 669.074219 486.753906 660.464844 511.679688 649.394531 535.175781 C 643.832031 546.898438 637.65625 558.269531 630.84375 569.148438 C 623.976562 580.007812 616.425781 590.339844 608.242188 600.019531 C 606.164062 602.414062 604.070312 604.859375 601.992188 607.148438 L 598.84375 610.511719 C 598.316406 611.074219 597.839844 611.621094 597.242188 612.21875 L 591.960938 617.550781 L 588.667969 620.683594 C 586.363281 622.867188 584.003906 624.996094 581.628906 627.09375 C 576.894531 631.296875 571.964844 635.277344 566.949219 639.132812 C 561.949219 643.003906 556.828125 646.699219 551.582031 650.203125 C 530.621094 664.265625 507.828125 675.355469 484.167969 683.398438 C 472.324219 687.394531 460.25 690.582031 448.035156 692.902344 C 441.960938 694.066406 435.730469 695.035156 429.710938 695.808594 L 425.238281 696.316406 L 420.277344 696.8125 L 418.09375 697.003906 L 415.789062 697.179688 L 411.140625 697.480469 C 386.359375 698.851562 361.503906 696.757812 337.460938 691.671875 C 313.367188 686.566406 290.183594 677.890625 268.445312 666.605469 C 246.726562 655.273438 226.589844 640.980469 208.722656 624.292969 C 190.804688 607.695312 175.125 588.683594 162.308594 567.984375 C 149.546875 547.234375 139.285156 524.96875 132.492188 501.628906 C 129.078125 489.976562 126.386719 478.09375 124.625 466.074219 C 123.691406 460.089844 123.09375 454.035156 122.511719 447.996094 C 122.285156 444.96875 122.003906 441.871094 121.898438 439.054688 L 121.773438 436.890625 L 121.71875 435.800781 L 121.683594 434.566406 L 121.5625 429.566406 L 121.527344 428.476562 C 121.527344 428.425781 121.527344 428.335938 121.527344 428.355469 L 121.527344 425.21875 C 121.542969 423.6875 121.492188 422.175781 121.542969 420.644531 C 121.613281 417.597656 121.667969 414.554688 121.863281 411.507812 C 122.125 405.4375 122.652344 399.363281 123.359375 393.328125 C 124.027344 387.273438 124.996094 381.269531 126.050781 375.285156 C 127.230469 369.320312 128.480469 363.367188 130.027344 357.488281 C 136.03125 333.941406 145.164062 311.144531 157.363281 290.042969 C 169.613281 268.953125 184.488281 249.417969 201.914062 232.078125 C 210.589844 223.417969 219.867188 215.375 229.652344 207.984375 C 239.421875 200.589844 249.648438 193.742188 260.332031 187.671875 L 260.949219 187.335938 C 265.699219 184.625 269.484375 180.171875 271.246094 174.539062 L 273.675781 166.777344 L 276.226562 159.050781 C 277.070312 156.480469 278.039062 153.945312 278.9375 151.394531 C 279.816406 148.824219 280.820312 146.324219 281.769531 143.789062 C 282.722656 141.238281 283.742188 138.738281 284.761719 136.238281 C 285.75 133.742188 286.804688 131.257812 287.878906 128.792969 C 288.933594 126.3125 290.027344 123.847656 291.152344 121.417969 C 292.242188 118.972656 293.351562 116.527344 294.53125 114.132812 C 295.710938 111.722656 296.855469 109.308594 298.085938 106.949219 C 299.320312 104.609375 300.515625 102.214844 301.820312 99.929688 C 303.085938 97.605469 304.335938 95.28125 305.707031 93.046875 C 307.027344 90.773438 308.367188 88.503906 309.773438 86.355469 L 311.816406 83.152344 L 319.738281 96.039062 L 343.09375 133.898438 L 343.550781 134.621094 C 347.882812 141.660156 356.824219 144.707031 364.707031 141.433594 L 366.996094 140.480469 L 369.355469 139.636719 L 371.820312 138.914062 L 374.335938 138.300781 L 376.90625 137.789062 L 379.546875 137.417969 L 382.238281 137.15625 L 384.96875 136.996094 L 387.714844 136.960938 L 390.496094 137.03125 L 393.292969 137.226562 L 396.09375 137.523438 L 398.910156 137.910156 L 401.707031 138.421875 L 404.503906 139.019531 L 407.285156 139.726562 L 408.851562 140.128906 C 415.3125 141.785156 422.300781 138.878906 425.558594 132.71875 L 446.328125 93.503906 L 456.695312 73.894531 L 458.789062 69.863281 C 460.546875 72.082031 462.273438 74.300781 463.964844 76.570312 C 466.640625 80.160156 469.226562 83.839844 471.777344 87.570312 C 473.0625 89.421875 474.332031 91.285156 475.5625 93.1875 C 476.8125 95.070312 478.027344 96.972656 479.242188 98.890625 C 480.457031 100.789062 481.636719 102.726562 482.816406 104.664062 C 483.992188 106.597656 485.15625 108.554688 486.28125 110.523438 C 487.445312 112.476562 488.570312 114.449219 489.660156 116.457031 C 490.789062 118.425781 491.878906 120.433594 492.953125 122.441406 C 495.117188 126.453125 497.246094 130.484375 499.289062 134.566406 C 501.347656 138.652344 503.335938 142.769531 505.257812 146.925781 C 509.109375 155.230469 512.71875 163.664062 516.117188 172.199219 C 517.804688 176.476562 519.425781 180.789062 521.007812 185.101562 C 522.558594 189.429688 524.039062 193.796875 525.515625 198.179688 L 527.644531 204.761719 L 529.652344 211.378906 L 531.554688 218.050781 L 533.332031 224.757812 L 534.984375 231.515625 L 536.515625 238.292969 L 537.941406 245.105469 L 539.246094 251.96875 L 538.964844 244.980469 L 538.523438 237.992188 C 538.152344 233.347656 537.660156 228.699219 537.113281 224.054688 L 536.199219 217.101562 L 535.179688 210.148438 L 534.015625 203.214844 L 532.730469 196.296875 C 531.835938 191.683594 530.832031 187.089844 529.773438 182.515625 C 528.683594 177.9375 527.558594 173.378906 526.324219 168.835938 C 523.914062 159.738281 521.132812 150.726562 518.085938 141.785156 C 516.574219 137.3125 514.988281 132.859375 513.300781 128.441406 C 512.492188 126.226562 511.628906 124.023438 510.746094 121.824219 C 509.902344 119.625 509.003906 117.425781 508.074219 115.242188 C 507.175781 113.058594 506.242188 110.875 505.273438 108.695312 C 504.339844 106.527344 503.355469 104.363281 502.351562 102.199219 C 501.382812 100.035156 500.363281 97.886719 499.324219 95.738281 C 498.304688 93.589844 497.246094 91.460938 496.175781 89.332031 C 495.117188 87.203125 494.007812 85.074219 492.882812 82.976562 C 491.792969 80.847656 490.648438 78.753906 489.484375 76.660156 C 488.339844 74.5625 487.144531 72.46875 485.929688 70.410156 C 484.734375 68.332031 483.464844 66.273438 482.214844 64.230469 C 479.699219 60.132812 477.058594 56.082031 474.3125 52.085938 C 471.585938 48.089844 468.714844 44.167969 465.757812 40.277344 C 464.949219 39.203125 463.894531 38.21875 462.695312 37.460938 C 457.203125 33.957031 449.898438 35.578125 446.398438 41.070312 L 445.796875 42 L 433.898438 60.675781 L 422.089844 79.40625 L 405.050781 106.457031 L 401.335938 105.667969 L 397.378906 104.980469 L 393.363281 104.417969 L 389.296875 104.027344 L 385.214844 103.800781 L 381.09375 103.746094 L 376.941406 103.851562 L 372.753906 104.171875 L 368.5625 104.664062 L 367.261719 104.890625 L 352.335938 77.222656 L 331.195312 38.09375 C 330.28125 36.421875 329.066406 34.765625 327.621094 33.375 C 319.859375 25.789062 307.414062 25.949219 299.847656 33.710938 L 299.636719 33.921875 C 297.367188 36.261719 294.953125 38.550781 292.808594 40.945312 C 290.675781 43.339844 288.460938 45.714844 286.488281 48.179688 L 283.476562 51.839844 C 282.492188 53.089844 281.578125 54.339844 280.609375 55.574219 L 277.792969 59.339844 L 275.101562 63.140625 C 273.285156 65.65625 271.597656 68.226562 269.925781 70.816406 C 268.199219 73.367188 266.632812 75.988281 265.015625 78.59375 C 263.394531 81.183594 261.898438 83.824219 260.386719 86.464844 C 258.816406 89.085938 257.410156 91.742188 255.96875 94.417969 C 254.488281 97.058594 253.132812 99.753906 251.761719 102.445312 C 250.351562 105.121094 249.050781 107.832031 247.78125 110.542969 C 246.460938 113.253906 245.195312 115.980469 243.980469 118.726562 C 242.765625 121.453125 241.515625 124.199219 240.371094 126.964844 C 239.210938 129.710938 238.011719 132.457031 236.921875 135.253906 C 235.832031 138.035156 234.667969 140.796875 233.628906 143.597656 L 230.691406 151.5 C 220.675781 157.078125 210.960938 163.152344 201.632812 169.824219 C 189.910156 178.21875 178.75 187.40625 168.277344 197.300781 C 147.367188 217.03125 128.902344 239.753906 114.097656 264.625 C 99.226562 289.476562 87.800781 316.460938 80.304688 344.484375 C 78.421875 351.503906 76.871094 358.597656 75.445312 365.710938 C 74.144531 372.839844 72.945312 379.984375 72.101562 387.203125 C 71.238281 394.382812 70.570312 401.617188 70.199219 408.851562 C 69.972656 412.460938 69.882812 416.085938 69.796875 419.710938 C 69.726562 421.507812 69.761719 423.320312 69.742188 425.132812 L 69.726562 427.84375 L 69.726562 429.53125 L 69.761719 430.765625 L 69.867188 435.78125 L 69.882812 437.046875 L 69.953125 438.457031 L 70.078125 441.289062 C 70.21875 445.109375 70.5 448.664062 70.765625 452.308594 C 71.378906 459.527344 72.191406 466.761719 73.335938 473.925781 C 75.535156 488.285156 78.808594 502.472656 82.960938 516.378906 C 91.304688 544.1875 103.46875 570.855469 119.167969 595.214844 C 134.816406 619.609375 153.753906 641.804688 175.28125 661.097656 C 196.894531 680.285156 221.097656 696.496094 247.007812 709.148438 C 272.882812 721.859375 300.605469 730.730469 328.890625 735.726562 C 357.191406 740.78125 386.078125 741.675781 414.46875 738.773438 L 419.785156 738.175781 L 422.441406 737.839844 L 425.238281 737.46875 L 430.1875 736.730469 L 435.625 735.851562 C 442.769531 734.582031 449.6875 733.175781 456.605469 731.414062 C 470.421875 727.949219 483.976562 723.53125 497.125 718.230469 C 523.457031 707.6875 548.117188 693.378906 570.363281 676.183594 C 581.523438 667.609375 591.996094 658.210938 601.765625 648.160156 C 604.195312 645.660156 606.605469 643.109375 608.945312 640.523438 L 612.589844 636.457031 L 615.828125 632.636719 L 617.449219 630.734375 L 619.121094 628.660156 L 622.5 624.433594 C 624.699219 621.617188 626.722656 618.820312 628.820312 615.984375 C 645.011719 593.121094 657.648438 568.199219 666.820312 542.359375 C 671.484375 529.472656 675.304688 516.34375 678.417969 503.105469 C 681.550781 489.871094 684.050781 476.5625 685.828125 463.167969 C 686.761719 456.480469 687.519531 449.792969 688.152344 443.085938 C 688.75 436.378906 689.210938 429.671875 689.5625 422.96875 C 690.210938 409.554688 690.441406 396.144531 690.035156 382.785156 " fill-opacity="1" fill-rule="nonzero"/></g><g clip-path="url(#21352b18d7)"><path fill="#951abe" d="M 539.730469 505.9375 C 539.730469 508.605469 539.664062 511.273438 539.535156 513.9375 C 539.402344 516.601562 539.207031 519.261719 538.945312 521.917969 C 538.683594 524.574219 538.355469 527.21875 537.964844 529.859375 C 537.574219 532.5 537.117188 535.125 536.597656 537.742188 C 536.078125 540.359375 535.492188 542.960938 534.84375 545.550781 C 534.195312 548.136719 533.484375 550.707031 532.710938 553.261719 C 531.9375 555.8125 531.097656 558.347656 530.199219 560.859375 C 529.300781 563.371094 528.34375 565.859375 527.320312 568.324219 C 526.300781 570.789062 525.21875 573.226562 524.078125 575.640625 C 522.9375 578.050781 521.738281 580.433594 520.480469 582.785156 C 519.222656 585.140625 517.910156 587.460938 516.539062 589.746094 C 515.164062 592.035156 513.738281 594.289062 512.257812 596.507812 C 510.773438 598.726562 509.238281 600.90625 507.648438 603.050781 C 506.058594 605.191406 504.417969 607.296875 502.726562 609.359375 C 501.035156 611.417969 499.292969 613.441406 497.5 615.417969 C 495.707031 617.394531 493.871094 619.324219 491.984375 621.210938 C 490.097656 623.097656 488.164062 624.9375 486.1875 626.730469 C 484.210938 628.519531 482.191406 630.261719 480.128906 631.953125 C 478.066406 633.648438 475.964844 635.289062 473.820312 636.878906 C 471.679688 638.46875 469.496094 640.003906 467.28125 641.484375 C 465.0625 642.96875 462.808594 644.394531 460.519531 645.765625 C 458.230469 647.136719 455.910156 648.453125 453.558594 649.710938 C 451.203125 650.96875 448.824219 652.167969 446.410156 653.308594 C 444 654.449219 441.558594 655.527344 439.09375 656.550781 C 436.628906 657.570312 434.140625 658.53125 431.628906 659.429688 C 429.117188 660.328125 426.585938 661.164062 424.03125 661.9375 C 421.480469 662.714844 418.910156 663.425781 416.320312 664.074219 C 413.734375 664.722656 411.132812 665.304688 408.515625 665.824219 C 405.898438 666.347656 403.269531 666.800781 400.628906 667.195312 C 397.992188 667.585938 395.34375 667.910156 392.691406 668.171875 C 390.035156 668.433594 387.375 668.632812 384.710938 668.761719 C 382.046875 668.894531 379.378906 668.957031 376.710938 668.957031 C 374.042969 668.957031 371.375 668.894531 368.710938 668.761719 C 366.046875 668.632812 363.386719 668.433594 360.730469 668.171875 C 358.078125 667.914062 355.429688 667.585938 352.789062 667.195312 C 350.152344 666.800781 347.523438 666.347656 344.90625 665.824219 C 342.289062 665.304688 339.6875 664.722656 337.101562 664.074219 C 334.511719 663.425781 331.941406 662.714844 329.390625 661.9375 C 326.835938 661.164062 324.304688 660.328125 321.792969 659.429688 C 319.277344 658.53125 316.789062 657.570312 314.324219 656.550781 C 311.859375 655.527344 309.421875 654.449219 307.011719 653.308594 C 304.597656 652.167969 302.21875 650.96875 299.863281 649.710938 C 297.511719 648.453125 295.191406 647.136719 292.902344 645.765625 C 290.613281 644.394531 288.359375 642.96875 286.140625 641.484375 C 283.921875 640.003906 281.742188 638.46875 279.601562 636.878906 C 277.457031 635.289062 275.355469 633.648438 273.292969 631.953125 C 271.230469 630.261719 269.210938 628.519531 267.234375 626.730469 C 265.257812 624.9375 263.324219 623.097656 261.4375 621.210938 C 259.550781 619.324219 257.714844 617.394531 255.921875 615.417969 C 254.128906 613.441406 252.386719 611.417969 250.695312 609.359375 C 249.003906 607.296875 247.363281 605.191406 245.773438 603.050781 C 244.183594 600.90625 242.648438 598.726562 241.164062 596.507812 C 239.683594 594.289062 238.257812 592.035156 236.882812 589.746094 C 235.511719 587.460938 234.199219 585.140625 232.941406 582.785156 C 231.683594 580.433594 230.484375 578.050781 229.34375 575.640625 C 228.203125 573.226562 227.121094 570.789062 226.101562 568.324219 C 225.078125 565.859375 224.121094 563.371094 223.222656 560.859375 C 222.320312 558.347656 221.484375 555.8125 220.710938 553.261719 C 219.9375 550.707031 219.226562 548.136719 218.578125 545.550781 C 217.929688 542.960938 217.34375 540.359375 216.824219 537.742188 C 216.304688 535.125 215.847656 532.5 215.457031 529.859375 C 215.0625 527.21875 214.738281 524.574219 214.476562 521.917969 C 214.214844 519.261719 214.019531 516.601562 213.886719 513.9375 C 213.757812 511.273438 213.691406 508.605469 213.691406 505.9375 C 213.691406 503.269531 213.757812 500.605469 213.886719 497.941406 C 214.019531 495.273438 214.214844 492.617188 214.476562 489.960938 C 214.738281 487.304688 215.0625 484.660156 215.457031 482.019531 C 215.847656 479.378906 216.304688 476.753906 216.824219 474.136719 C 217.34375 471.519531 217.929688 468.917969 218.578125 466.328125 C 219.226562 463.742188 219.9375 461.171875 220.710938 458.617188 C 221.484375 456.0625 222.320312 453.53125 223.222656 451.019531 C 224.121094 448.507812 225.078125 446.019531 226.101562 443.554688 C 227.121094 441.089844 228.203125 438.652344 229.34375 436.238281 C 230.484375 433.828125 231.683594 431.445312 232.941406 429.09375 C 234.199219 426.738281 235.511719 424.417969 236.882812 422.128906 C 238.257812 419.84375 239.683594 417.589844 241.164062 415.371094 C 242.648438 413.152344 244.183594 410.972656 245.773438 408.828125 C 247.363281 406.6875 249.003906 404.582031 250.695312 402.519531 C 252.386719 400.457031 254.128906 398.4375 255.921875 396.460938 C 257.714844 394.484375 259.550781 392.554688 261.4375 390.667969 C 263.324219 388.78125 265.257812 386.941406 267.234375 385.148438 C 269.210938 383.359375 271.230469 381.617188 273.292969 379.921875 C 275.355469 378.230469 277.457031 376.589844 279.601562 375 C 281.742188 373.410156 283.921875 371.875 286.140625 370.394531 C 288.359375 368.910156 290.613281 367.484375 292.902344 366.113281 C 295.191406 364.742188 297.511719 363.425781 299.863281 362.167969 C 302.21875 360.910156 304.597656 359.710938 307.011719 358.570312 C 309.421875 357.429688 311.859375 356.351562 314.324219 355.328125 C 316.789062 354.308594 319.277344 353.347656 321.792969 352.449219 C 324.304688 351.550781 326.835938 350.714844 329.390625 349.9375 C 331.941406 349.164062 334.511719 348.453125 337.101562 347.804688 C 339.6875 347.15625 342.289062 346.574219 344.90625 346.050781 C 347.523438 345.53125 350.152344 345.074219 352.789062 344.683594 C 355.429688 344.292969 358.078125 343.964844 360.730469 343.703125 C 363.386719 343.441406 366.046875 343.246094 368.710938 343.117188 C 371.375 342.984375 374.042969 342.917969 376.710938 342.917969 C 379.378906 342.917969 382.046875 342.984375 384.710938 343.117188 C 387.375 343.246094 390.035156 343.441406 392.691406 343.703125 C 395.34375 343.964844 397.992188 344.292969 400.628906 344.683594 C 403.269531 345.074219 405.898438 345.53125 408.515625 346.050781 C 411.132812 346.574219 413.734375 347.15625 416.320312 347.804688 C 418.910156 348.453125 421.480469 349.164062 424.03125 349.9375 C 426.585938 350.714844 429.117188 351.550781 431.628906 352.449219 C 434.140625 353.347656 436.628906 354.308594 439.09375 355.328125 C 441.558594 356.351562 444 357.429688 446.410156 358.570312 C 448.824219 359.710938 451.203125 360.910156 453.558594 362.167969 C 455.910156 363.425781 458.230469 364.742188 460.519531 366.113281 C 462.808594 367.484375 465.0625 368.910156 467.28125 370.394531 C 469.496094 371.875 471.679688 373.410156 473.820312 375 C 475.964844 376.589844 478.066406 378.230469 480.128906 379.921875 C 482.191406 381.617188 484.210938 383.359375 486.1875 385.148438 C 488.164062 386.941406 490.097656 388.78125 491.984375 390.667969 C 493.871094 392.554688 495.707031 394.484375 497.5 396.460938 C 499.292969 398.4375 501.035156 400.457031 502.726562 402.519531 C 504.417969 404.582031 506.058594 406.6875 507.648438 408.828125 C 509.238281 410.972656 510.773438 413.152344 512.257812 415.371094 C 513.738281 417.589844 515.164062 419.84375 516.539062 422.128906 C 517.910156 424.417969 519.222656 426.738281 520.480469 429.09375 C 521.738281 431.445312 522.9375 433.828125 524.078125 436.238281 C 525.21875 438.652344 526.300781 441.089844 527.320312 443.554688 C 528.34375 446.019531 529.300781 448.507812 530.199219 451.019531 C 531.097656 453.53125 531.9375 456.0625 532.710938 458.617188 C 533.484375 461.171875 534.195312 463.742188 534.84375 466.328125 C 535.492188 468.917969 536.078125 471.519531 536.597656 474.136719 C 537.117188 476.753906 537.574219 479.378906 537.964844 482.019531 C 538.355469 484.660156 538.683594 487.304688 538.945312 489.960938 C 539.207031 492.617188 539.402344 495.273438 539.535156 497.941406 C 539.664062 500.605469 539.730469 503.269531 539.730469 505.9375 Z M 539.730469 505.9375 " fill-opacity="1" fill-rule="nonzero"/></g><g clip-path="url(#7aad3ffefe)"><path fill="#ffffff" d="M 460.03125 508.335938 L 448.882812 508.335938 C 441.675781 531.757812 418.816406 543.46875 380.308594 543.46875 L 358.578125 543.46875 L 358.578125 598.976562 L 325.25 598.976562 L 325.25 508.335938 L 310.5 508.335938 L 310.5 493.472656 L 325.25 493.472656 L 325.25 483.902344 L 310.5 483.902344 L 310.5 469.039062 L 325.25 469.039062 L 325.25 433.90625 L 378.734375 433.90625 C 397.875 433.90625 412.699219 436.046875 423.210938 440.324219 C 436.796875 445.804688 445.503906 455.378906 449.332031 469.039062 L 460.03125 469.039062 L 460.03125 483.902344 L 451.585938 483.902344 C 451.65625 485.554688 451.695312 486.941406 451.695312 488.066406 C 451.695312 490.472656 451.65625 492.273438 451.585938 493.472656 L 460.03125 493.472656 Z M 408.234375 469.039062 C 401.550781 464.238281 390.367188 461.832031 374.679688 461.832031 L 358.578125 461.832031 L 358.578125 469.039062 Z M 417.355469 488.519531 C 417.355469 486.941406 417.242188 485.40625 417.015625 483.902344 L 358.578125 483.902344 L 358.578125 493.472656 L 417.015625 493.472656 C 417.242188 492.121094 417.355469 490.472656 417.355469 488.519531 Z M 407.558594 508.335938 L 358.578125 508.335938 L 358.578125 515.429688 L 376.820312 515.429688 C 390.480469 515.429688 400.726562 513.066406 407.558594 508.335938 Z M 407.558594 508.335938 " fill-opacity="1" fill-rule="nonzero"/></g></svg>