<svg xmlns="http://www.w3.org/2000/svg" xmlns:xlink="http://www.w3.org/1999/xlink" width="1024" zoomAndPan="magnify" viewBox="0 0 768 767.999994" height="1024" preserveAspectRatio="xMidYMid meet" version="1.0"><defs><clipPath id="18a7d17dec"><path d="M 77 396 L 691 396 L 691 750.203125 L 77 750.203125 Z M 77 396 " clip-rule="nonzero"/></clipPath><clipPath id="cd92ad5f1e"><path d="M 61.441406 17.453125 L 368 17.453125 L 368 548 L 61.441406 548 Z M 61.441406 17.453125 " clip-rule="nonzero"/></clipPath><clipPath id="d1ecb10509"><path d="M 399 18 L 706.441406 18 L 706.441406 550 L 399 550 Z M 399 18 " clip-rule="nonzero"/></clipPath></defs><rect x="-76.8" width="921.6" fill="#ffffff" y="-76.799999" height="921.599993" fill-opacity="1"/><rect x="-76.8" width="921.6" fill="#ffffff" y="-76.799999" height="921.599993" fill-opacity="1"/><path fill="#eea42b" d="M 251.449219 303.53125 L 177.640625 346.136719 L 177.410156 260.789062 L 251.449219 218.304688 Z M 251.449219 303.53125 " fill-opacity="1" fill-rule="nonzero"/><g clip-path="url(#18a7d17dec)"><path fill="#eea42b" d="M 384.042969 396.070312 L 203.890625 500.261719 L 203.507812 500.476562 L 451.445312 643.691406 L 383.980469 682.644531 L 194.609375 573.375 L 225.527344 555.523438 L 166.835938 521.652344 L 77.207031 573.40625 L 384.054688 750.542969 L 568.769531 643.714844 L 320.894531 500.453125 L 384.042969 464 L 573.347656 573.3125 L 543.109375 590.765625 L 538.605469 593.542969 L 593.367188 625.121094 L 597.105469 627.535156 L 690.785156 573.269531 Z M 384.042969 396.070312 " fill-opacity="1" fill-rule="nonzero"/></g><g clip-path="url(#cd92ad5f1e)"><path fill="#3c8dbc" d="M 61.472656 193.902344 L 367.230469 17.457031 L 367.285156 151.839844 L 308.78125 185.394531 L 308.78125 118.8125 L 120.125 227.722656 L 120.125 445.707031 L 308.78125 336.695312 L 308.78125 271.003906 L 367.335938 237.445312 L 367.386719 370.453125 L 61.625 547.015625 Z M 61.472656 193.902344 " fill-opacity="1" fill-rule="nonzero"/></g><g clip-path="url(#d1ecb10509)"><path fill="#3c8dbc" d="M 706.527344 195.359375 L 706.453125 549.609375 L 647.6875 515.804688 L 647.707031 229.316406 L 584.542969 192.863281 L 581.675781 191.195312 L 581.617188 476.574219 L 522.839844 442.769531 L 522.851562 157.246094 L 458.253906 119.964844 L 458.34375 406.480469 L 399.566406 372.59375 L 399.5625 18.304688 Z M 706.527344 195.359375 " fill-opacity="1" fill-rule="nonzero"/></g></svg>